# xmcd
#
# Track frame offsets: 
#        150
#        16099
#        32176
#        46656
#        61494
#        79050
#        91400
#        113387
#        126970
#        143712
#        159628
#
# Disc length: 2345 seconds
#
# Revision: 0
# Processed by: cddbd v1.4PL0 Copyright (c) Steve Scherf et al.
# Submitted via: ExactAudioCopy v0.90b4
#
DISCID=8209270b
DTITLE=Life's A Dance - Jet Roberts
DYEAR=1900
DGENRE=Country
TTITLE0=Rodeo
TTITLE1=The River
TTITLE2=Brotherly Love
TTITLE3=Life's A Dance
TTITLE4=Neon Moon
TTITLE5=Hillbilly Rock
TTITLE6=Shame On The Moon
TTITLE7=Small Town Saturday Night
TTITLE8=Ships That Don't Come In
TTITLE9=What She's Doing Now
TTITLE10=Trying To Hide A Fire In The Dark
EXTD=
EXTT0=
EXTT1=
EXTT2=
EXTT3=
EXTT4=
EXTT5=
EXTT6=
EXTT7=
EXTT8=
EXTT9=
EXTT10=
PLAYORDER=
